# xmcd
#
# Track frame offsets:
#	150
#	16371
#	31846
#	49831
#	65567
#	79111
#	95008
#	110027
#	122856
#	137704
#	151792
#	167292
#	184287
#	199797
#	214032
#	228336
#
# Disc length: 3248
#
# Revision: 1
# Processed by: cddbd v1.5.1PL0 Copyright (c) Steve Scherf et al.
# Submitted via: MAGIX_Freedb v0.9beta0
# Normalized: r0:DSETVAR1
#
DISCID=d70cae10
DTITLE=Various Artist - ORF Schlagerparade 2002 [CD2)
DYEAR=1900
DGENRE=
TTITLE0=Kastelruther Spatzen - Liebe Darf Alles
TTITLE1=Jantje Smit - Bella Maria
TTITLE2=Die Seer - Junischnee
TTITLE3=Stefanie Hertel - Wolkenlos
TTITLE4=Bernhard Brink - Alles Klar!
TTITLE5=Alpin AG - Ich Bin Nicht Allein
TTITLE6=Monika Martin - Später, Wann Ist Das
TTITLE7=Die Edlseer - Bäng Bäng
TTITLE8=Drei Stimmen D'Amour - Die Liebe Ist Ein Lied
TTITLE9=Simone - Solang Wir Leben
TTITLE10=Fernando Express - Südlich Der Sehnsucht
TTITLE11=Petra Frey - Corazon
TTITLE12=Nik P. and Reflex - Holiday
TTITLE13=Marina - Unverschämt Süsses Lächeln
TTITLE14=Marc Tanner - Mein Herz Macht Bum-Bum-Bum
TTITLE15=Ireen Sheer - Wer Kann Dir Schon Widersteh'n
EXTD=
EXTT0=
EXTT1=
EXTT2=
EXTT3=
EXTT4=
EXTT5=
EXTT6=
EXTT7=
EXTT8=
EXTT9=
EXTT10=
EXTT11=
EXTT12=
EXTT13=
EXTT14=
EXTT15=
PLAYORDER=
